<svg xmlns="http://www.w3.org/2000/svg" width="62.521" height="62.527" viewBox="0 0 62.521 62.527"><defs><style>.a{fill:rgba(47,46,65,0.6);}</style></defs><g transform="translate(0 0)"><path class="a" d="M28.918,13.579A1.831,1.831,0,1,0,30.75,15.41,1.831,1.831,0,0,0,28.918,13.579Z" transform="translate(19.945 10.006)"/><path class="a" d="M62.5,36.849C60.365,22.935,52.986,12.338,39.166,9.662a18.832,18.832,0,0,0-5.639-6.685C28.359-.726,22.152-.661,16.079,1.458a1.831,1.831,0,0,0,.213,3.534c4.32.971,6.134,3.135,7.183,5.019a23.039,23.039,0,0,0-8.524,3.54C2,22.1-1.706,33.7.682,43.431v0c2.8,11.4,14.5,18.534,15,18.832a1.833,1.833,0,0,0,.958.261,8.175,8.175,0,0,0,5.971-2.742c1.976-2.328,2.539-5.793,1.671-10.3a1.835,1.835,0,0,0-2.537-1.329,17.249,17.249,0,0,1-6.774,1.184A12.213,12.213,0,0,1,4.551,42.964,19.761,19.761,0,0,1,8.515,38.07a11.373,11.373,0,0,1,12.323-2.159,91.025,91.025,0,0,0,14.408,4.119c8.157,1.625,17.866,2.354,25.552-.938a2.673,2.673,0,0,0,1.436-.972,1.829,1.829,0,0,0,.265-1.271ZM20.97,52.268c.171,2.264-.21,4.011-1.128,5.116A4.305,4.305,0,0,1,17.1,58.83a38.88,38.88,0,0,1-7.885-7.02A18.341,18.341,0,0,0,20.97,52.268ZM40.491,37.194c-1.571-2.94-4.1-8.874-2.551-14.344a13.228,13.228,0,0,1,6.393-7.713c8.35,3.879,12.6,11.757,14.307,20.879C53.114,38.135,46.333,37.99,40.491,37.194Zm-5.952-28.1a40.278,40.278,0,0,0-7.286.263,13.423,13.423,0,0,0-4.616-5.63A12.712,12.712,0,0,1,34.539,9.089ZM22.181,32.5c-6.453-2.581-13.224-1.046-18.469,5.273.052-5.473,2.263-13.913,13.257-21.17A18.928,18.928,0,0,1,20.52,14.7a32.722,32.722,0,0,1,9.1-1.907,32.55,32.55,0,0,1,10.459.827c-7.281,5.747-7.68,14.317-4,22.83A89.814,89.814,0,0,1,22.181,32.5Z" transform="translate(-0.002 0)"/></g></svg>