<svg xmlns="http://www.w3.org/2000/svg" width="62.539" height="62.527" viewBox="0 0 62.539 62.527"><defs><style>.a{fill:rgba(47,46,65,0.6);}</style></defs><g transform="translate(0 0)"><g transform="translate(0 0)"><path class="a" d="M61.9,22.788a12.838,12.838,0,0,0-16.158-8.233,15.192,15.192,0,0,0-2.676,1.182,15.182,15.182,0,0,0,.3-2.911C43.366,5.687,38.433,0,31.4,0S19.173,5.7,19.173,12.827a15.184,15.184,0,0,0,.3,2.911,15.2,15.2,0,0,0-2.676-1.182A12.838,12.838,0,0,0,.636,22.788,13.271,13.271,0,0,0,8.869,39.374a15.2,15.2,0,0,0,2.86.616,15.2,15.2,0,0,0-1.951,2.18,12.838,12.838,0,0,0,2.837,17.911,12.124,12.124,0,0,0,17.313-2.837,15.2,15.2,0,0,0,1.47-2.53,15.188,15.188,0,0,0,1.47,2.53c4.175,5.747,11.351,6.982,17.056,2.837A12.838,12.838,0,0,0,52.761,42.17a15.19,15.19,0,0,0-1.951-2.18,15.215,15.215,0,0,0,2.86-.616A13.271,13.271,0,0,0,61.9,22.788ZM31.4,3.667c4.812,0,8.3,3.852,8.3,9.159A15.979,15.979,0,0,1,37.2,20.7a1.825,1.825,0,0,0-.271.989L35.023,25a9.3,9.3,0,0,0-1.818-.565V16.919A1.811,1.811,0,0,0,31.4,15.087a1.832,1.832,0,0,0-1.832,1.832V24.43a9.089,9.089,0,0,0-1.833.583L25.6,21.526a1.825,1.825,0,0,0-.267-.821,15.979,15.979,0,0,1-2.5-7.878C22.837,7.6,26.517,3.667,31.4,3.667ZM10,35.89A9.679,9.679,0,0,1,4.121,23.92a9.17,9.17,0,0,1,11.542-5.881,15.39,15.39,0,0,1,5.926,3.94l3.146,5.153a9.205,9.205,0,0,0-1.3,1.759l-7.149-2.323a1.832,1.832,0,0,0-1.132,3.484L22.3,32.375a8.931,8.931,0,0,0,0,2.1l-4.576,1.6A15.72,15.72,0,0,1,10,35.89ZM29.566,47.3a15.954,15.954,0,0,1-2.6,7.787,8.467,8.467,0,0,1-12.2,2.026,9.17,9.17,0,0,1-2.026-12.794c2.425-3.339,6.638-4.856,6.958-5.064l3.751-1.309a9.205,9.205,0,0,0,1.193,1.634l-4.419,6.082a1.832,1.832,0,1,0,2.964,2.154l4.417-6.08a9.079,9.079,0,0,0,1.959.64V47.3ZM31.4,38.9a5.5,5.5,0,1,1,5.5-5.5A5.5,5.5,0,0,1,31.4,38.9ZM47.771,57.118c-4.21,3.059-9.055,1.943-11.939-2.026A15.968,15.968,0,0,1,33.205,47.3V42.38a9.287,9.287,0,0,0,1.984-.64l4.417,6.08a1.832,1.832,0,0,0,2.964-2.154l-4.419-6.082a9.208,9.208,0,0,0,1.184-1.619l3.415,1.23c.421.312,4.586,1.74,7.047,5.127A9.17,9.17,0,0,1,47.771,57.118ZM44.952,36.095l-4.46-1.607a8.925,8.925,0,0,0,.007-2.113l7.146-2.322a1.832,1.832,0,1,0-1.132-3.484l-7.149,2.323A9.2,9.2,0,0,0,38.036,27.1l3.025-5.236a15.3,15.3,0,0,1,5.815-3.829A9.17,9.17,0,0,1,58.419,23.92a9.679,9.679,0,0,1-5.881,11.97h0A15.647,15.647,0,0,1,44.952,36.095Z" transform="translate(0 -0.003)"/></g></g></svg>