<svg xmlns="http://www.w3.org/2000/svg" width="54.95" height="62.527" viewBox="0 0 54.95 62.527"><defs><style>.a{fill:rgba(47,46,65,0.6);}</style></defs><g transform="translate(0)"><g transform="translate(21.978 40.301)"><path class="a" d="M25.291,27.4,21.627,23.74a1.832,1.832,0,0,0-2.591,0L15.373,27.4a1.834,1.834,0,0,0,1.3,3.127H24A1.834,1.834,0,0,0,25.291,27.4Z" transform="translate(-14.835 -23.203)"/></g><g transform="translate(7.324 21.982)"><path class="a" d="M15.558,12.656a9.159,9.159,0,1,0,9.159,9.159A9.17,9.17,0,0,0,15.558,12.656Zm0,14.679a5.52,5.52,0,1,1,5.52-5.52A5.544,5.544,0,0,1,15.558,27.335Z" transform="translate(-6.398 -12.656)"/></g><g transform="translate(29.307 21.982)"><path class="a" d="M28.214,12.656a9.159,9.159,0,1,0,9.159,9.159A9.17,9.17,0,0,0,28.214,12.656Zm0,14.679a5.52,5.52,0,1,1,5.52-5.52A5.544,5.544,0,0,1,28.214,27.335Z" transform="translate(-19.055 -12.656)"/></g><g transform="translate(0)"><path class="a" d="M56.537,33.094a27.327,27.327,0,0,0-7.45-25.046h0A27.465,27.465,0,0,0,2.776,33.095a11.07,11.07,0,0,0-.116,6.8,10.734,10.734,0,0,0,8.361,7.48c.463.132.491,0,1.4.152.25.041.489.076.75.093v7.086A5.449,5.449,0,0,0,16.5,59.758a34.718,34.718,0,0,0,13.153,2.769h.006a34.723,34.723,0,0,0,13.154-2.769,5.449,5.449,0,0,0,3.33-5.052V47.611c.254-.017.49-.049.738-.087a9.871,9.871,0,0,0,1.495-.175,10.742,10.742,0,0,0,8.3-7.551A11.061,11.061,0,0,0,56.537,33.094Zm-3.376,5.689a7.112,7.112,0,0,1-5.656,5c-1.5.046-1.289.345-2.829.033a1.833,1.833,0,0,0-2.2,1.8v9.093A1.8,1.8,0,0,1,41.4,56.378c-.67.28-1.571.594-2.606.929V53.343a1.79,1.79,0,0,0-1.807-1.807,1.832,1.832,0,0,0-1.832,1.832v4.925a29.652,29.652,0,0,1-3.688.48V53.344a1.79,1.79,0,0,0-1.807-1.807,1.832,1.832,0,0,0-1.832,1.832V58.8a29.466,29.466,0,0,1-3.688-.529V53.344a1.79,1.79,0,0,0-1.807-1.807A1.832,1.832,0,0,0,20.5,53.368v3.964c-1.035-.335-1.912-.673-2.582-.953a1.85,1.85,0,0,1-1.106-1.7V45.589a1.8,1.8,0,0,0-2.172-1.771c-1.634.332-1.274,0-2.889-.035A7.094,7.094,0,0,1,6.172,38.85a7.429,7.429,0,0,1,.208-4.939,1.832,1.832,0,0,0,.086-1.093,23.8,23.8,0,1,1,46.38,0,1.832,1.832,0,0,0,.086,1.093A7.423,7.423,0,0,1,53.161,38.783Z" transform="translate(-2.181 0)"/></g></g></svg>